<?xml version="1.0" encoding="UTF-8"?>
<!-- Generated by Pixelmator Pro 3.6.17 -->
<svg width="100" height="125" viewBox="0 0 100 125" xmlns="http://www.w3.org/2000/svg">
    <g id="Gruppo">
        <path id="Percorso" fill="#000000" stroke="none" d="M 53.243999 19.873001 L 14.578 19.873001 C 12.075 19.873001 10.041 21.907997 10.041 24.407997 L 10.041 40.376999 L 10.041 71.964996 L 10.041 87.931999 C 10.041 90.433998 12.075 92.471001 14.578 92.471001 L 31.431999 92.471001 L 61.071999 103.825996 C 61.592999 104.025002 62.138 104.126999 62.695 104.126999 C 64.560997 104.126999 66.264 102.957001 66.931999 101.212997 L 83.947998 56.806999 L 89.661003 41.895004 C 89.663002 41.889 89.665001 41.880997 89.668999 41.874001 C 89.684998 41.826996 89.700996 41.779999 89.712997 41.735001 C 90.085999 40.647003 90.038002 39.479004 89.567001 38.423996 C 89.073997 37.317001 88.179001 36.469002 87.045998 36.035004 L 57.780998 24.821999 L 57.780998 24.407997 C 57.780998 21.907997 55.744999 19.873001 53.243999 19.873001 Z M 58.610001 37.762001 C 58.666 37.767998 58.723999 37.772003 58.779999 37.779999 C 59.047001 37.806999 59.313999 37.843002 59.582001 37.879997 C 59.636002 37.888 59.688999 37.898003 59.743 37.904999 C 59.995998 37.944 60.248001 37.983002 60.499001 38.029999 C 60.528 38.035995 60.556999 38.040001 60.587002 38.045998 C 60.854 38.093002 61.120998 38.150002 61.388 38.206001 C 61.449001 38.222 61.509998 38.235001 61.57 38.247002 C 61.835999 38.306 62.098 38.370003 62.362 38.438004 C 62.400002 38.449997 62.438 38.459 62.477001 38.469002 C 62.717999 38.533005 62.959999 38.601997 63.202 38.671997 C 63.251999 38.690002 63.299999 38.703003 63.348999 38.716995 C 63.608002 38.796997 63.866001 38.880997 64.124001 38.964996 C 64.18 38.986 64.235001 39.005997 64.293999 39.024002 C 64.558998 39.117996 64.823997 39.211998 65.086998 39.313004 C 65.321999 39.403 65.556 39.497002 65.789001 39.594002 C 65.866997 39.625 65.942001 39.662003 66.019997 39.694 C 66.172997 39.760002 66.327003 39.824997 66.478996 39.895004 C 66.568001 39.936005 66.657997 39.979004 66.748001 40.022003 C 66.886002 40.084999 67.023003 40.149002 67.158997 40.216995 C 67.252998 40.262001 67.347 40.311005 67.438004 40.358002 C 67.567001 40.423996 67.698997 40.487 67.827003 40.555 C 67.922997 40.606003 68.015999 40.658997 68.112 40.710999 C 68.235001 40.777 68.361 40.844002 68.483002 40.914001 C 68.579002 40.966995 68.671997 41.023003 68.767998 41.080002 C 68.887001 41.148003 69.009003 41.219002 69.127998 41.291 C 69.222 41.348 69.316002 41.408005 69.406998 41.466995 C 69.525002 41.539001 69.641998 41.612 69.758003 41.688004 C 69.851997 41.749001 69.944 41.808998 70.035004 41.872002 C 70.149002 41.947998 70.264 42.024002 70.378998 42.100998 C 70.470001 42.164001 70.559998 42.229996 70.650002 42.292 C 70.762001 42.372002 70.874001 42.449997 70.983002 42.531998 C 71.074997 42.598 71.163002 42.665001 71.250999 42.731003 C 71.360001 42.813004 71.470001 42.895004 71.578003 42.979004 C 71.665001 43.046997 71.750999 43.117996 71.836998 43.186005 C 71.944 43.272003 72.051003 43.358002 72.155998 43.442001 C 72.241997 43.514 72.324997 43.586998 72.411003 43.658997 C 72.514999 43.747002 72.615997 43.834999 72.719002 43.925003 C 72.802002 43.997002 72.886002 44.072998 72.968002 44.147995 C 73.07 44.237999 73.168999 44.330002 73.268997 44.421005 C 73.350998 44.497002 73.431 44.572998 73.512001 44.650002 C 73.610001 44.744003 73.707001 44.837997 73.803001 44.932999 C 73.883003 45.011002 73.960999 45.091003 74.038002 45.168999 C 74.134003 45.266998 74.228996 45.362 74.322998 45.459999 C 74.401001 45.542 74.474998 45.619995 74.551003 45.701996 C 74.644997 45.802002 74.737 45.901001 74.828003 46.000999 C 74.902 46.083 74.974998 46.167 75.047997 46.250999 C 75.139999 46.352997 75.226997 46.453995 75.315002 46.557999 C 75.387001 46.641998 75.459 46.727997 75.530998 46.813995 C 75.616997 46.917999 75.702003 47.022995 75.788002 47.127998 C 75.858002 47.216003 75.926003 47.302002 75.994003 47.389999 C 76.077003 47.494995 76.161003 47.602997 76.242996 47.712006 C 76.309998 47.800003 76.376999 47.889999 76.442001 47.979996 C 76.524002 48.089005 76.602997 48.199005 76.681 48.309998 C 76.746002 48.402 76.810997 48.494003 76.872002 48.583 C 76.949997 48.694 77.025002 48.807999 77.100998 48.918999 C 77.163002 49.013 77.223999 49.106995 77.287003 49.197998 C 77.360001 49.311005 77.432999 49.425003 77.505997 49.542 C 77.564003 49.638 77.624001 49.733002 77.681999 49.828995 C 77.752998 49.944 77.823997 50.058998 77.890999 50.175003 C 77.947998 50.272995 78.004997 50.369995 78.060997 50.466003 C 78.125999 50.587006 78.193001 50.703995 78.258003 50.820999 C 78.311996 50.921005 78.364998 51.020004 78.418999 51.119995 C 78.483002 51.238998 78.544998 51.360001 78.607002 51.479004 C 78.660004 51.578995 78.710999 51.68 78.761002 51.781998 C 78.820999 51.903 78.877998 52.026001 78.935997 52.147003 C 78.986 52.250999 79.033997 52.352005 79.082001 52.456001 C 79.139 52.578995 79.194 52.703995 79.248001 52.826996 C 79.293999 52.931 79.339996 53.035995 79.386002 53.140999 C 79.438004 53.265999 79.487999 53.389 79.539001 53.514 C 79.583 53.621002 79.625 53.729004 79.667 53.835999 C 79.717003 53.960999 79.763 54.085999 79.810997 54.212997 C 79.849998 54.321999 79.889999 54.43 79.93 54.539001 C 79.973999 54.666 80.017998 54.794998 80.059998 54.921997 C 80.098 55.030998 80.135002 55.143005 80.170998 55.253998 C 80.212997 55.382996 80.250999 55.509995 80.291 55.639 C 80.323997 55.751999 80.360001 55.863998 80.392998 55.977005 C 80.403 56.012001 80.413002 56.046997 80.422997 56.081001 L 69.538002 84.482002 C 69.474998 84.521004 69.416 84.561996 69.351997 84.598999 C 69.258003 84.660004 69.163002 84.716003 69.067001 84.775002 C 68.907997 84.869003 68.748001 84.962997 68.587997 85.054001 C 68.494003 85.107002 68.400002 85.161003 68.306999 85.211998 C 68.128998 85.309998 67.952003 85.404999 67.773003 85.499001 C 67.695 85.540001 67.620003 85.581001 67.543999 85.620003 C 67.286003 85.750999 67.027 85.877998 66.768997 86.002998 C 66.738998 86.014999 66.709999 86.026001 66.681 86.040001 C 66.449997 86.147003 66.216003 86.250999 65.981003 86.352997 C 65.892998 86.391998 65.803001 86.425003 65.716003 86.463997 C 65.538002 86.536003 65.359001 86.609001 65.179001 86.679001 C 65.079002 86.718002 64.977997 86.757004 64.877998 86.793999 C 64.706001 86.858002 64.532997 86.918999 64.359001 86.980003 C 64.257004 87.014999 64.155998 87.052002 64.051003 87.084999 C 63.872002 87.148003 63.693001 87.202003 63.508999 87.259003 C 63.417 87.288002 63.323002 87.32 63.228001 87.347 C 63 87.415001 62.771999 87.477997 62.542 87.540001 C 62.495998 87.552002 62.448002 87.565002 62.402 87.577003 C 62.125 87.651001 61.845001 87.718002 61.566002 87.779999 C 61.487 87.800003 61.404999 87.815002 61.325001 87.831001 C 61.124001 87.874001 60.924999 87.917 60.723 87.954002 C 60.619999 87.973999 60.516998 87.992996 60.412998 88.011002 C 60.229 88.042 60.048 88.071999 59.867001 88.100998 C 59.758999 88.116997 59.648998 88.134003 59.542 88.148003 C 59.358002 88.175003 59.173 88.198997 58.988998 88.220001 C 58.884998 88.232002 58.782001 88.242996 58.678001 88.254997 C 58.470001 88.278 58.261002 88.295998 58.050999 88.314003 C 57.972 88.32 57.894001 88.328003 57.817001 88.334 C 57.796001 88.334 57.778999 88.335999 57.759998 88.335999 C 57.759998 88.332001 57.759998 88.328003 57.759998 88.321999 C 57.772999 88.193001 57.778999 88.061996 57.778999 87.931 L 57.778999 71.964996 L 57.778999 70.563004 C 57.789001 70.561005 57.797001 70.558998 57.806 70.556999 C 57.933998 70.526001 58.060001 70.492996 58.185001 70.453003 C 58.210999 70.445 58.238998 70.436996 58.264999 70.43 C 58.395 70.390999 58.523998 70.346001 58.652 70.300995 C 58.678001 70.291 58.703999 70.279999 58.73 70.270004 C 58.851002 70.224998 58.973 70.173996 59.091999 70.124001 C 59.103001 70.119995 59.113998 70.115997 59.124001 70.110001 C 59.25 70.053001 59.373001 69.992996 59.497002 69.931999 C 59.521999 69.917999 59.550999 69.904999 59.576 69.889 C 59.698002 69.828003 59.816002 69.762001 59.932999 69.692001 C 59.951 69.681999 59.969002 69.671005 59.985001 69.660995 C 60.094002 69.597 60.201 69.529999 60.306 69.458 C 60.324001 69.445999 60.344002 69.434998 60.362 69.421005 C 60.474998 69.345001 60.585999 69.264999 60.693001 69.182999 C 60.716 69.165001 60.738998 69.147995 60.762001 69.127998 C 60.872002 69.046005 60.98 68.958 61.083 68.865997 C 61.089001 68.862 61.092999 68.858002 61.097 68.856003 C 61.200001 68.765999 61.299 68.673996 61.396999 68.581001 C 61.417 68.559998 61.437 68.540001 61.457001 68.522003 C 61.553001 68.425995 61.647999 68.328995 61.740002 68.227005 C 61.756001 68.209 61.773998 68.190002 61.790001 68.169998 C 61.877998 68.071999 61.962002 67.974998 62.042999 67.873001 C 62.054001 67.862999 62.063999 67.852005 62.070999 67.839996 C 62.159 67.733002 62.240002 67.623001 62.321999 67.507996 C 62.339001 67.485001 62.355999 67.460999 62.372002 67.438004 C 62.452 67.322998 62.529999 67.208 62.601002 67.089996 C 62.611 67.074005 62.620998 67.061005 62.629002 67.042999 C 62.695999 66.933998 62.759998 66.82 62.824001 66.707001 C 62.835999 66.686005 62.847 66.662003 62.858002 66.640999 C 62.923 66.520004 62.985001 66.397003 63.042999 66.268005 C 63.056 66.242996 63.067001 66.214996 63.078999 66.188004 C 63.139 66.056999 63.195 65.925995 63.247002 65.790001 C 63.987999 63.854004 63.932999 61.747002 63.089001 59.854004 C 62.243999 57.959 60.714001 56.509995 58.778 55.768005 C 58.632 55.710999 58.483002 55.662994 58.334999 55.613998 C 58.298 55.602005 58.262001 55.593002 58.223999 55.581001 C 58.084 55.540001 57.943001 55.499001 57.800999 55.468002 C 57.792999 55.464005 57.785 55.462006 57.778 55.459999 L 57.778 40.376999 L 57.778 37.688004 C 57.793999 37.688004 57.811001 37.690002 57.827999 37.692001 C 58.09 37.709 58.352001 37.732002 58.610001 37.762001 Z M 53.950001 71.746002 C 53.866001 71.850998 53.783001 71.957001 53.699001 72.061996 C 53.626999 72.152 53.551998 72.242004 53.477001 72.332001 C 53.390999 72.436005 53.306 72.539001 53.217999 72.643005 C 53.141998 72.731003 53.067001 72.817001 52.990002 72.903 C 52.900002 73.007004 52.810001 73.108002 52.719002 73.208 C 52.644001 73.292 52.566002 73.375999 52.488998 73.459999 C 52.395 73.559998 52.303001 73.658997 52.208 73.757004 C 52.130001 73.839005 52.049999 73.918999 51.971001 73.999001 C 51.875 74.097 51.779999 74.192001 51.681 74.287994 C 51.602001 74.365997 51.52 74.442001 51.438 74.520004 C 51.34 74.615997 51.241001 74.709 51.139 74.800995 C 51.056999 74.876999 50.976002 74.953003 50.891998 75.026001 C 50.790001 75.117996 50.687 75.209999 50.582001 75.298996 C 50.500999 75.371002 50.415001 75.444 50.331001 75.515999 C 50.226002 75.604004 50.119999 75.692001 50.014999 75.779999 C 49.929001 75.849998 49.842999 75.921005 49.757 75.987 C 49.650002 76.072998 49.542 76.158997 49.431999 76.242996 C 49.344002 76.310997 49.258999 76.377998 49.171001 76.442001 C 49.061001 76.524002 48.949001 76.608002 48.838001 76.688004 C 48.748001 76.753998 48.66 76.815002 48.57 76.878998 C 48.459 76.959 48.344002 77.039001 48.230999 77.114998 C 48.139 77.178001 48.049 77.237999 47.959999 77.296997 C 47.845001 77.375 47.729 77.448997 47.611 77.526001 C 47.519001 77.583 47.429001 77.640999 47.335999 77.697998 C 47.219002 77.772003 47.101002 77.844002 46.983002 77.917 C 46.889 77.972 46.794998 78.028 46.702 78.081001 C 46.582001 78.151001 46.463001 78.220001 46.342999 78.288002 C 46.247002 78.341003 46.153999 78.394997 46.057999 78.445999 C 45.937 78.512001 45.814999 78.577003 45.692001 78.640999 C 45.596001 78.692001 45.500999 78.740997 45.404999 78.791 C 45.280998 78.853996 45.157001 78.914001 45.032001 78.974998 C 44.933998 79.022003 44.837002 79.070999 44.738998 79.115997 C 44.612999 79.177002 44.487 79.235001 44.362 79.290001 C 44.264 79.336998 44.164001 79.379997 44.063999 79.425003 C 43.938999 79.480003 43.808998 79.533997 43.681 79.584999 C 43.581001 79.627998 43.481998 79.668999 43.382 79.711998 C 43.254002 79.763 43.125 79.814003 42.994999 79.862 C 42.893002 79.901001 42.792 79.940002 42.689999 79.976997 C 42.560001 80.026001 42.43 80.070999 42.298 80.117996 C 42.195999 80.153 42.092999 80.190002 41.991001 80.224998 C 41.859001 80.267998 41.727001 80.310997 41.594002 80.351997 C 41.490002 80.385002 41.389 80.417999 41.283001 80.449997 C 41.151001 80.492996 41.016998 80.529999 40.884998 80.569 C 40.780998 80.598 40.674999 80.627998 40.57 80.658997 C 40.436001 80.694 40.301998 80.726997 40.167 80.763 C 40.063 80.790001 39.958 80.818001 39.853001 80.843002 C 39.716999 80.875999 39.582001 80.905998 39.445999 80.934998 C 39.339001 80.959999 39.233002 80.986 39.125999 81.007004 C 38.990002 81.038002 38.853001 81.064003 38.716999 81.088997 C 38.610001 81.110001 38.501999 81.132004 38.394001 81.152 C 38.256001 81.177002 38.117001 81.198997 37.979 81.220001 C 37.872002 81.239998 37.765999 81.257004 37.659 81.273003 C 37.516998 81.293999 37.375999 81.311996 37.234001 81.332001 C 37.129002 81.348 37.021999 81.361 36.917 81.375 C 36.771 81.390999 36.625999 81.403999 36.48 81.421997 C 36.375999 81.431999 36.275002 81.443001 36.169998 81.453003 C 36.019001 81.467003 35.865002 81.475998 35.712002 81.486 C 35.613998 81.494003 35.519001 81.501999 35.421001 81.507004 C 35.250999 81.518997 35.082001 81.525002 34.911999 81.531998 C 34.830002 81.533997 34.749001 81.540001 34.668999 81.542 C 34.416 81.550003 34.164001 81.554001 33.910999 81.554001 C 33.66 81.554001 33.408001 81.550003 33.154999 81.542 C 33.075001 81.540001 32.993999 81.533997 32.911999 81.531998 C 32.742001 81.524002 32.573002 81.517998 32.403 81.507004 C 32.305 81.500999 32.206001 81.492996 32.108002 81.486 C 31.957001 81.475998 31.805 81.466003 31.653999 81.453003 C 31.548 81.443001 31.444 81.431999 31.339001 81.419998 C 31.195 81.403999 31.052 81.390999 30.908001 81.375 C 30.801001 81.361 30.694 81.346001 30.587 81.332001 C 30.447001 81.311996 30.306 81.294998 30.166 81.273003 C 30.059 81.257004 29.951 81.239998 29.844 81.220001 C 29.705999 81.198997 29.569 81.177002 29.431 81.152 C 29.320999 81.132004 29.212999 81.109001 29.106001 81.088997 C 28.969999 81.064003 28.834999 81.038002 28.698999 81.007004 C 28.591999 80.986 28.483999 80.959999 28.377001 80.934998 C 28.240999 80.905998 28.107 80.875999 27.974001 80.843002 C 27.867001 80.818001 27.759001 80.788002 27.650999 80.763 C 27.52 80.727997 27.386 80.695 27.254999 80.658997 C 27.148001 80.627998 27.042 80.596001 26.934 80.567001 C 26.802999 80.528 26.673 80.492996 26.541 80.452003 C 26.436001 80.418999 26.33 80.386002 26.224001 80.349998 C 26.094999 80.308998 25.965 80.267998 25.834999 80.224998 C 25.73 80.190002 25.625999 80.151001 25.521 80.115997 C 25.393 80.069 25.263 80.026001 25.138 79.976997 C 25.032 79.940002 24.927999 79.899002 24.825001 79.858002 C 24.698999 79.810997 24.572001 79.762001 24.445999 79.711998 C 24.344 79.668999 24.240999 79.627998 24.136999 79.583 C 24.013 79.531998 23.886999 79.478996 23.764 79.425003 C 23.662001 79.379997 23.559999 79.334999 23.458 79.288002 C 23.334999 79.233002 23.212999 79.177002 23.09 79.117996 C 22.989 79.070999 22.889999 79.019997 22.788 78.973 C 22.667 78.912003 22.545 78.853996 22.426001 78.792999 C 22.325001 78.739998 22.228001 78.689003 22.128 78.637001 C 22.009001 78.575996 21.889 78.512001 21.771999 78.447998 C 21.674 78.394997 21.577 78.338997 21.479 78.286003 C 21.361 78.220001 21.243999 78.151001 21.125 78.083 C 21.028999 78.028 20.934 77.970001 20.837999 77.913002 C 20.723 77.845001 20.607 77.772003 20.490999 77.699997 C 20.396999 77.642998 20.302999 77.583 20.209999 77.524002 C 20.094999 77.449997 19.982 77.375999 19.868999 77.299004 C 19.775 77.237999 19.683001 77.176003 19.591999 77.111 C 19.481001 77.035004 19.368 76.959 19.257 76.880997 C 19.165001 76.817001 19.075001 76.75 18.983999 76.685997 C 18.877001 76.606003 18.767 76.526001 18.659 76.444 C 18.569 76.377998 18.48 76.308998 18.389999 76.240997 C 18.284 76.156998 18.176001 76.074997 18.070999 75.988998 C 17.983 75.921005 17.895 75.849998 17.809999 75.778 C 17.704 75.692001 17.6 75.604004 17.497 75.518005 C 17.410999 75.445999 17.325001 75.372002 17.242001 75.296997 C 17.138 75.209 17.038 75.119003 16.936001 75.027 C 16.851999 74.953003 16.768999 74.876999 16.684999 74.800003 C 16.584999 74.708 16.488001 74.613998 16.389999 74.520996 C 16.306 74.443001 16.224001 74.365005 16.145 74.287003 C 16.047001 74.191002 15.952 74.096001 15.856 74 C 15.776 73.917999 15.696 73.835999 15.616 73.753998 C 15.522 73.658005 15.431 73.558998 15.338 73.460999 C 15.26 73.375 15.182 73.292999 15.105 73.207001 C 15.015 73.106995 14.925 73.005997 14.835 72.903999 C 14.759 72.816002 14.684 72.729996 14.607 72.641998 C 14.519 72.537994 14.434 72.434998 14.346 72.331001 C 14.272 72.240997 14.199 72.151001 14.126 72.061005 C 14.04 71.956001 13.957 71.849998 13.875 71.742996 C 13.803 71.651001 13.731 71.558998 13.661 71.466003 C 13.638 71.438995 13.617 71.406998 13.596 71.377998 L 13.596 40.960999 C 13.617 40.933998 13.638 40.902 13.661 40.873001 C 13.731 40.778999 13.803 40.691002 13.875 40.599998 C 13.957 40.490997 14.04 40.382996 14.126 40.278 C 14.198 40.188004 14.272 40.098 14.346 40.007996 C 14.434 39.903999 14.519 39.801003 14.607 39.696999 C 14.683 39.609001 14.758 39.523003 14.835 39.436996 C 14.925 39.334999 15.015 39.234001 15.105 39.134003 C 15.182 39.048004 15.26 38.964005 15.338 38.882004 C 15.432 38.779999 15.523 38.682999 15.616 38.584999 C 15.696 38.504997 15.776 38.423004 15.856 38.341003 C 15.952 38.245003 16.047001 38.150002 16.145 38.056 C 16.224001 37.975998 16.306 37.895996 16.389999 37.818001 C 16.488001 37.723999 16.584999 37.632004 16.684999 37.541 C 16.768999 37.464996 16.851999 37.389 16.936001 37.311996 C 17.038 37.222 17.136999 37.132004 17.24 37.042 C 17.325001 36.968002 17.410999 36.897003 17.497 36.822998 C 17.601 36.735001 17.704 36.649002 17.809999 36.563004 C 17.895 36.490997 17.983 36.419998 18.070999 36.349998 C 18.176001 36.265999 18.284 36.181999 18.389999 36.098 C 18.48 36.031998 18.569 35.962997 18.659 35.895004 C 18.767 35.813004 18.877001 35.733002 18.983999 35.654999 C 19.076 35.589005 19.166 35.524002 19.257 35.459999 C 19.368 35.382004 19.481001 35.304001 19.591999 35.227997 C 19.684 35.167 19.775999 35.102997 19.868999 35.040001 C 19.982 34.966003 20.094999 34.891998 20.209999 34.819 C 20.304001 34.757996 20.398001 34.699997 20.490999 34.639 C 20.606001 34.567001 20.722 34.496002 20.837999 34.428001 C 20.934 34.369003 21.028999 34.313004 21.125 34.255997 C 21.243 34.188004 21.360001 34.123001 21.479 34.056999 C 21.577 34 21.674 33.947998 21.771999 33.892998 C 21.889 33.826996 22.009001 33.765999 22.128 33.701996 C 22.228001 33.651001 22.325001 33.598 22.426001 33.550003 C 22.545 33.487 22.667 33.427002 22.788 33.370003 C 22.889999 33.319 22.989 33.272003 23.09 33.223999 C 23.212999 33.165001 23.334999 33.109001 23.458 33.052002 C 23.559999 33.009003 23.662001 32.959999 23.764 32.917 C 23.886999 32.862 24.013 32.811996 24.136999 32.757004 C 24.240999 32.716003 24.344 32.670998 24.445999 32.629997 C 24.572001 32.579002 24.698999 32.529999 24.825001 32.482002 C 24.929001 32.443001 25.032 32.402 25.138 32.362999 C 25.263 32.318001 25.393 32.270996 25.521 32.227997 C 25.625999 32.188995 25.73 32.152 25.834999 32.114998 C 25.965 32.073997 26.094999 32.033005 26.224001 31.992004 C 26.33 31.957001 26.436001 31.921997 26.541 31.889999 C 26.673 31.850998 26.802999 31.811996 26.934 31.777 C 27.042 31.746002 27.148001 31.712997 27.254999 31.682999 C 27.386999 31.650002 27.518999 31.614998 27.65 31.581001 C 27.76 31.554001 27.868 31.524002 27.975 31.497002 C 28.108999 31.466003 28.243 31.436005 28.375999 31.404999 C 28.483 31.382004 28.593 31.356003 28.700001 31.333 C 28.836 31.306 28.971001 31.279999 29.107 31.252998 C 29.214001 31.232002 29.322001 31.209999 29.431999 31.190002 C 29.57 31.165001 29.707001 31.142998 29.844999 31.122002 C 29.952 31.104004 30.059999 31.084999 30.167 31.067001 C 30.306999 31.046997 30.448 31.029999 30.587999 31.010002 C 30.695 30.996002 30.802 30.981003 30.909 30.966995 C 31.052999 30.948997 31.195999 30.936005 31.34 30.921997 C 31.445 30.910004 31.549 30.899002 31.655001 30.890999 C 31.806 30.875 31.958 30.865997 32.109001 30.854004 C 32.207001 30.848 32.306 30.837997 32.403999 30.833 C 32.574001 30.822998 32.743 30.817001 32.912998 30.811996 C 32.994999 30.807999 33.076 30.804001 33.155998 30.800003 C 33.409 30.792 33.660999 30.785995 33.911999 30.785995 C 34.165001 30.785995 34.417 30.792 34.669998 30.800003 C 34.75 30.804001 34.831001 30.807999 34.912998 30.811996 C 35.083 30.818001 35.251999 30.823997 35.422001 30.833 C 35.52 30.839005 35.617001 30.848999 35.716999 30.854004 C 35.868 30.865997 36.02 30.875 36.171001 30.890999 C 36.277 30.899002 36.381001 30.910995 36.484001 30.921997 C 36.630001 30.936005 36.772999 30.948997 36.917 30.966995 C 37.021999 30.981003 37.131001 30.996002 37.237999 31.010002 C 37.377998 31.029999 37.516998 31.046997 37.659 31.067001 C 37.765999 31.084999 37.874001 31.104004 37.981998 31.122002 C 38.118999 31.142998 38.256001 31.165001 38.394001 31.190002 C 38.501999 31.209999 38.612 31.231003 38.719002 31.252998 C 38.855 31.279999 38.990002 31.306 39.125999 31.333 C 39.233002 31.356003 39.341 31.382004 39.450001 31.404999 C 39.584 31.436005 39.717999 31.466003 39.851002 31.497002 C 39.958 31.524002 40.066002 31.554001 40.175999 31.581001 C 40.306999 31.613998 40.438999 31.647003 40.570999 31.682999 C 40.678001 31.711998 40.786999 31.746002 40.891998 31.777 C 41.022999 31.811996 41.153 31.850998 41.285 31.889999 C 41.389999 31.920998 41.495998 31.956001 41.604 31.992004 C 41.730999 32.033005 41.861 32.073997 41.991001 32.114998 C 42.096001 32.152 42.202 32.188995 42.305 32.227997 C 42.432999 32.270996 42.561001 32.318001 42.688999 32.362999 C 42.793999 32.402 42.897999 32.443001 43.001999 32.482002 C 43.127998 32.530998 43.255001 32.580002 43.381001 32.629997 C 43.483002 32.670998 43.585999 32.716003 43.691002 32.757004 C 43.813999 32.809998 43.939999 32.862 44.063 32.917 C 44.165001 32.959999 44.266998 33.009003 44.368999 33.052002 C 44.492001 33.109001 44.613998 33.165001 44.737999 33.223999 C 44.838001 33.273003 44.938999 33.32 45.039001 33.370003 C 45.16 33.427002 45.279999 33.487 45.401001 33.550003 C 45.501999 33.598999 45.598999 33.652 45.699001 33.701996 C 45.818001 33.765999 45.938 33.826996 46.055 33.892998 C 46.153 33.947998 46.25 34 46.348 34.056999 C 46.466 34.123001 46.583 34.188004 46.700001 34.255997 C 46.798 34.313004 46.893002 34.369003 46.988998 34.428001 C 47.104 34.496002 47.220001 34.567001 47.334 34.639 C 47.43 34.699997 47.522999 34.757996 47.617001 34.819 C 47.73 34.890999 47.845001 34.964996 47.958 35.040001 C 48.051998 35.102997 48.144001 35.167 48.237 35.227997 C 48.346001 35.304001 48.459 35.382004 48.568001 35.459999 C 48.66 35.523003 48.751999 35.589005 48.842999 35.656998 C 48.950001 35.733002 49.060001 35.813004 49.167999 35.895004 C 49.257999 35.962997 49.347 36.031998 49.437 36.098 C 49.542999 36.181999 49.648998 36.265999 49.754002 36.349998 C 49.844002 36.419998 49.931999 36.490997 50.018002 36.563004 C 50.123001 36.649002 50.227001 36.735001 50.328999 36.822998 C 50.417 36.895004 50.502998 36.968002 50.589001 37.043999 C 50.691002 37.132004 50.790001 37.222 50.889999 37.311996 C 50.976002 37.388 51.058998 37.464005 51.143002 37.541 C 51.243 37.632996 51.34 37.724998 51.438 37.818001 C 51.52 37.895996 51.604 37.975998 51.686001 38.056 C 51.782001 38.150002 51.874001 38.245003 51.971001 38.341003 C 52.051998 38.423004 52.132 38.504997 52.212002 38.584999 C 52.306 38.682999 52.397999 38.779999 52.487999 38.879997 C 52.566002 38.964005 52.646 39.048004 52.723 39.134003 C 52.813 39.234001 52.903 39.333 52.991001 39.434998 C 53.069 39.523003 53.144001 39.609001 53.220001 39.698997 C 53.307999 39.801003 53.393002 39.903999 53.479 40.007996 C 53.553001 40.098 53.627998 40.188004 53.701 40.278999 C 53.786999 40.382996 53.868 40.487999 53.952 40.597 C 54.023998 40.688995 54.096001 40.778999 54.166 40.872002 C 54.187 40.903 54.209999 40.932999 54.230999 40.959999 L 54.230999 57.028 L 54.230999 68.997002 L 54.230999 71.377998 C 54.209999 71.406998 54.187 71.438995 54.166 71.466003 C 54.094002 71.561005 54.021999 71.652 53.950001 71.746002 Z M 57.990002 59.306999 C 58.057999 59.344002 58.125999 59.380997 58.191002 59.419998 C 58.238998 59.449005 58.286999 59.481003 58.333 59.509995 C 58.396999 59.553001 58.459 59.596001 58.519001 59.640999 C 58.564999 59.673996 58.609001 59.709 58.654999 59.746002 C 58.713001 59.791 58.768002 59.841995 58.825001 59.890999 C 58.867001 59.93 58.908001 59.966995 58.948002 60.007996 C 59.001999 60.058998 59.053001 60.115005 59.105999 60.169998 C 59.143002 60.212997 59.181 60.251999 59.216999 60.294998 C 59.266998 60.354004 59.314999 60.417999 59.362999 60.481003 C 59.395 60.524002 59.425999 60.563004 59.457001 60.608002 C 59.507 60.68 59.553001 60.752998 59.598999 60.828995 C 59.622002 60.867996 59.646999 60.903 59.667999 60.942001 C 59.734001 61.058998 59.793999 61.178001 59.849998 61.298996 C 60.308998 62.326004 60.338001 63.469002 59.936001 64.520004 C 59.889999 64.637001 59.84 64.75 59.785 64.863998 C 59.768002 64.897003 59.750999 64.93 59.733002 64.964005 C 59.691002 65.042 59.646999 65.117996 59.601002 65.194 C 59.580002 65.227005 59.558998 65.264 59.537998 65.298004 C 59.485001 65.375999 59.431999 65.451996 59.375999 65.527 C 59.358002 65.552002 59.342999 65.576004 59.321999 65.598999 C 59.247002 65.696999 59.168999 65.787994 59.084999 65.877998 C 59.067001 65.895996 59.049 65.915001 59.030998 65.932999 C 58.964001 66.002998 58.893002 66.068001 58.821999 66.134003 C 58.792 66.158997 58.761002 66.184998 58.731998 66.212006 C 58.666 66.266998 58.598 66.320999 58.529999 66.369995 C 58.499001 66.395004 58.467999 66.418999 58.436001 66.440002 C 58.351002 66.502998 58.261002 66.558998 58.171001 66.613998 C 58.157001 66.624001 58.145 66.632004 58.131001 66.639 C 58.027 66.701996 57.919998 66.755997 57.810001 66.808998 C 57.799999 66.813004 57.792 66.817001 57.783001 66.820999 L 57.783001 59.203995 C 57.803001 59.214005 57.825001 59.220001 57.845001 59.229004 C 57.893002 59.253998 57.939999 59.280998 57.990002 59.306999 Z M 13.593 24.407997 C 13.593 23.866997 14.035 23.423996 14.578 23.423996 L 53.243999 23.423996 C 53.786999 23.423996 54.229 23.866997 54.229 24.407997 L 54.229 26.044998 L 54.229 35.578003 C 54.196999 35.544998 54.166 35.514999 54.132999 35.486 C 54.066002 35.417999 53.994999 35.350998 53.925999 35.287003 C 53.801998 35.167999 53.674 35.048996 53.549 34.931999 C 53.477001 34.865997 53.404999 34.801003 53.333 34.735001 C 53.199001 34.613998 53.063999 34.495003 52.929001 34.377998 C 52.865002 34.320999 52.800999 34.264999 52.736 34.208 C 52.542999 34.043999 52.346001 33.879997 52.148998 33.720001 C 52.143002 33.714005 52.137001 33.709999 52.131001 33.704002 C 51.925999 33.538002 51.717999 33.377998 51.508999 33.216003 C 51.445999 33.167 51.381001 33.120003 51.318001 33.070999 C 51.168999 32.959999 51.021 32.849998 50.872002 32.742996 C 50.796001 32.686005 50.720001 32.636002 50.644001 32.581001 C 50.5 32.476997 50.355 32.375999 50.207001 32.276001 C 50.132999 32.226997 50.058998 32.176003 49.983002 32.127998 C 49.819 32.014999 49.652 31.906998 49.484001 31.802002 C 49.43 31.766998 49.376999 31.729996 49.320999 31.696999 C 49.097 31.556 48.873001 31.417999 48.645 31.285004 C 48.606998 31.260002 48.567001 31.237999 48.527 31.216995 C 48.339001 31.108002 48.150002 30.998001 47.960999 30.892998 C 47.888 30.851997 47.812 30.813004 47.737999 30.770004 C 47.577999 30.683998 47.418999 30.598 47.257999 30.515999 C 47.178001 30.473 47.098 30.431999 47.015999 30.390999 C 46.853001 30.306999 46.689999 30.229004 46.523998 30.149002 C 46.451 30.110001 46.376999 30.074997 46.303001 30.040001 C 46.091 29.940002 45.880001 29.843002 45.666 29.747002 C 45.639 29.735001 45.612 29.722 45.585999 29.711998 C 45.345001 29.604996 45.102001 29.500999 44.856998 29.401001 C 44.793999 29.375999 44.727001 29.348 44.661999 29.322998 C 44.481998 29.250999 44.303001 29.18 44.122002 29.112 C 44.035999 29.081001 43.952 29.048004 43.868 29.017998 C 43.701 28.955002 43.533001 28.897003 43.363998 28.837997 C 43.278 28.808998 43.194 28.777 43.108002 28.748001 C 42.925999 28.686996 42.743999 28.628998 42.562 28.571999 C 42.492001 28.551003 42.422001 28.527 42.352001 28.503998 C 42.098999 28.43 41.846001 28.354004 41.59 28.283005 C 41.564999 28.275002 41.537998 28.268997 41.514999 28.263 C 41.285999 28.198997 41.056 28.141998 40.827 28.083 C 40.745998 28.063004 40.664001 28.043999 40.582001 28.024002 C 40.404999 27.981003 40.228001 27.942001 40.049999 27.901001 C 39.958 27.880997 39.866001 27.863998 39.772999 27.844002 C 39.599998 27.806999 39.424 27.774002 39.249001 27.738998 C 39.160999 27.723 39.074001 27.706001 38.986 27.690002 C 38.779999 27.654999 38.573002 27.617996 38.363998 27.585999 C 38.308998 27.578003 38.256001 27.568001 38.202 27.560997 C 37.938999 27.520004 37.675999 27.485001 37.412998 27.451996 C 37.345001 27.444 37.277 27.435997 37.209 27.431 C 37.014 27.407997 36.816002 27.386002 36.618999 27.367996 C 36.527 27.358002 36.432999 27.349998 36.34 27.343002 C 36.164001 27.326996 35.987 27.316002 35.812 27.304001 C 35.714001 27.298004 35.618999 27.292 35.522999 27.286003 C 35.339001 27.276001 35.153999 27.265999 34.970001 27.259003 C 34.883999 27.257004 34.800999 27.250999 34.715 27.249001 C 34.446999 27.242996 34.181 27.237 33.910999 27.237 C 33.643002 27.237 33.376999 27.242996 33.109001 27.249001 C 33.022999 27.250999 32.939999 27.257004 32.854 27.259003 C 32.669998 27.266998 32.487 27.277 32.303001 27.286003 C 32.205002 27.292 32.108002 27.298004 32.012001 27.304001 C 31.836 27.316002 31.659 27.326996 31.483999 27.343002 C 31.389999 27.350998 31.298 27.359001 31.205 27.367996 C 31.007999 27.386002 30.812 27.406998 30.615 27.431 C 30.547001 27.436996 30.476999 27.445 30.409 27.451996 C 30.146 27.485001 29.885 27.520004 29.624001 27.560997 C 29.568001 27.569 29.513 27.579002 29.455999 27.585999 C 29.250999 27.619003 29.044001 27.653999 28.837999 27.690002 C 28.750999 27.706001 28.660999 27.723 28.573 27.738998 C 28.396999 27.774002 28.224001 27.806999 28.051001 27.844002 C 27.957001 27.863998 27.865 27.880997 27.771999 27.903 C 27.596001 27.942001 27.421 27.981003 27.246 28.022003 C 27.162001 28.042999 27.077999 28.063004 26.995001 28.083 C 26.768999 28.139999 26.544001 28.195999 26.32 28.259003 C 26.291 28.266998 26.26 28.275002 26.231001 28.281998 C 25.976999 28.351997 25.724001 28.428001 25.473 28.502998 C 25.399 28.526001 25.327 28.550003 25.254999 28.572998 C 25.075001 28.629997 24.896999 28.686005 24.719 28.747002 C 24.629 28.776001 24.542999 28.807999 24.455 28.836998 C 24.288 28.895996 24.124001 28.954002 23.959 29.014999 C 23.872999 29.045998 23.785 29.079002 23.698999 29.111 C 23.521999 29.179001 23.344999 29.248001 23.167 29.32 C 23.1 29.345001 23.031 29.373001 22.964001 29.400002 C 22.721001 29.5 22.478001 29.602997 22.238001 29.709 C 22.205999 29.723 22.174 29.737999 22.143999 29.753998 C 21.934 29.846001 21.726999 29.942001 21.521999 30.039001 C 21.444 30.073997 21.368 30.111 21.292999 30.150002 C 21.131001 30.227997 20.969999 30.306 20.811001 30.388 C 20.726999 30.431 20.643 30.473999 20.561001 30.516998 C 20.403999 30.597 20.247 30.681 20.087999 30.766998 C 20.013 30.809998 19.934999 30.850998 19.858999 30.893997 C 19.673 30.998001 19.488001 31.102997 19.302 31.209999 C 19.26 31.235001 19.216 31.259003 19.174 31.283997 C 18.945999 31.418999 18.724001 31.555 18.5 31.694 C 18.444 31.729004 18.389 31.767998 18.330999 31.803001 C 18.165001 31.908005 18.002001 32.015999 17.837999 32.125 C 17.763 32.176003 17.687 32.229004 17.612 32.277 C 17.466 32.376999 17.320999 32.475998 17.177 32.578003 C 17.101999 32.632996 17.025999 32.684998 16.950001 32.742004 C 16.799999 32.848999 16.652 32.959 16.504999 33.07 C 16.441999 33.119003 16.375 33.166 16.312 33.214996 C 16.103001 33.376999 15.895 33.537003 15.69 33.703003 C 15.686 33.707001 15.68 33.710999 15.676 33.714996 C 15.477 33.876999 15.279 34.042999 15.083 34.209 C 15.02 34.264 14.958 34.32 14.894 34.373001 C 14.758 34.492004 14.622 34.614998 14.486 34.736 C 14.416 34.800003 14.346 34.862999 14.276 34.929001 C 14.147 35.045998 14.017 35.168999 13.889 35.290001 C 13.824 35.352997 13.755 35.417 13.69 35.481003 C 13.658 35.512001 13.625 35.543999 13.592 35.576996 L 13.592 24.407997 Z M 13.593 87.931999 L 13.593 76.764 C 13.625 76.796997 13.658 76.827003 13.691 76.860001 C 13.756 76.922997 13.825 76.987 13.89 77.051003 C 14.018 77.171997 14.148 77.292999 14.277 77.412003 C 14.347 77.475998 14.417 77.541 14.487 77.602997 C 14.623 77.727997 14.759 77.847 14.895 77.966003 C 14.959 78.023003 15.021 78.077003 15.084 78.132004 C 15.279 78.297997 15.478 78.461998 15.677 78.624001 C 15.681 78.627998 15.687 78.632004 15.691 78.636002 C 15.896 78.804001 16.104 78.966003 16.313 79.125999 C 16.375999 79.175003 16.441 79.220001 16.504 79.271004 C 16.650999 79.379997 16.801001 79.489998 16.951 79.598999 C 17.025999 79.653999 17.101999 79.708 17.177999 79.761002 C 17.322001 79.862999 17.466999 79.963997 17.613001 80.061996 C 17.687 80.114998 17.763 80.166 17.839001 80.216003 C 18.003 80.324997 18.166 80.431 18.332001 80.536003 C 18.389999 80.572998 18.445 80.610001 18.500999 80.644997 C 18.725 80.786003 18.947001 80.921997 19.174999 81.056999 C 19.216999 81.082001 19.261 81.106003 19.302999 81.130997 C 19.489 81.237999 19.674 81.344002 19.860001 81.446999 C 19.934999 81.489998 20.013 81.530998 20.089001 81.571999 C 20.247 81.657997 20.403999 81.741997 20.562 81.823997 C 20.643999 81.866997 20.728001 81.910004 20.812 81.953003 C 20.971001 82.032997 21.132 82.112999 21.294001 82.193001 C 21.368999 82.227997 21.445 82.264999 21.523001 82.304001 C 21.728001 82.402 21.934999 82.495003 22.145 82.588997 C 22.174 82.602997 22.207001 82.615997 22.239 82.629997 C 22.478001 82.737 22.721001 82.841003 22.965 82.941002 C 23.032 82.968002 23.101 82.994003 23.167999 83.021004 C 23.346001 83.091003 23.523001 83.162003 23.700001 83.230003 C 23.785999 83.261002 23.874001 83.292999 23.959999 83.325996 C 24.125 83.387001 24.289 83.445 24.455999 83.501999 C 24.544001 83.532997 24.629999 83.565002 24.719999 83.592003 C 24.898001 83.653 25.076 83.712997 25.256001 83.767998 C 25.327999 83.789001 25.4 83.815002 25.474001 83.835999 C 25.725 83.914001 25.978001 83.987999 26.232 84.056999 C 26.261 84.067001 26.292 84.072998 26.320999 84.082001 C 26.545 84.142998 26.77 84.200996 26.996 84.255997 C 27.079 84.278999 27.163 84.296997 27.247 84.317001 C 27.423 84.358002 27.598 84.399002 27.773001 84.438004 C 27.867001 84.459 27.959 84.478996 28.052 84.499001 C 28.226 84.533997 28.399 84.569 28.573999 84.600998 C 28.662001 84.619003 28.752001 84.634003 28.839001 84.652 C 29.045 84.689003 29.252001 84.722 29.457001 84.755997 C 29.514 84.764 29.569 84.774002 29.625 84.782997 C 29.886 84.82 30.146999 84.857002 30.41 84.889999 C 30.478001 84.898003 30.548 84.903999 30.615999 84.911003 C 30.813 84.931999 31.009001 84.956001 31.205999 84.973999 C 31.299999 84.984001 31.392 84.991997 31.485001 84.999001 C 31.660999 85.013 31.837999 85.026001 32.013 85.040001 C 32.109001 85.045998 32.206001 85.052002 32.304001 85.057999 C 32.487999 85.068001 32.671001 85.075996 32.855 85.081001 C 32.941002 85.084999 33.023998 85.088997 33.110001 85.091003 C 33.377998 85.098999 33.644001 85.102997 33.911999 85.102997 C 34.181999 85.102997 34.448002 85.098999 34.716 85.091003 C 34.801998 85.088997 34.884998 85.084999 34.971001 85.081001 C 35.154999 85.074997 35.34 85.067001 35.523998 85.057999 C 35.619999 85.052002 35.715 85.045998 35.813 85.040001 C 35.988998 85.026001 36.166 85.013 36.341 84.999001 C 36.435001 84.990997 36.528999 84.983002 36.619999 84.973999 C 36.817001 84.956001 37.014999 84.932999 37.209999 84.911003 C 37.278 84.903 37.346001 84.897003 37.414001 84.889999 C 37.676998 84.857002 37.939999 84.82 38.202999 84.782997 C 38.257 84.773003 38.310001 84.764999 38.365002 84.755997 C 38.574001 84.723 38.780998 84.690002 38.987 84.652 C 39.075001 84.634003 39.161999 84.619003 39.25 84.600998 C 39.425999 84.57 39.602001 84.535004 39.773998 84.497002 C 39.868 84.478996 39.959999 84.459999 40.050999 84.438004 C 40.229 84.399002 40.405998 84.358002 40.583 84.317001 C 40.665001 84.296997 40.747002 84.279999 40.827999 84.258003 C 41.056999 84.200996 41.286999 84.140999 41.515999 84.080002 C 41.539001 84.07 41.566002 84.064003 41.591 84.058998 C 41.847 83.988998 42.099998 83.914001 42.353001 83.835999 C 42.423 83.815002 42.493 83.792999 42.563 83.769997 C 42.744999 83.712997 42.926998 83.653 43.109001 83.592003 C 43.195 83.565002 43.278999 83.535004 43.365002 83.503998 C 43.534 83.445 43.702 83.385002 43.868999 83.325996 C 43.952999 83.292999 44.036999 83.262001 44.123001 83.232002 C 44.304001 83.162003 44.483002 83.091003 44.662998 83.016998 C 44.728001 82.991997 44.794998 82.968002 44.858002 82.943001 C 45.103001 82.841003 45.346001 82.737999 45.587002 82.629997 C 45.612999 82.617996 45.639999 82.607002 45.667 82.595001 C 45.881001 82.499001 46.091999 82.402 46.304001 82.302002 C 46.376999 82.264999 46.451 82.230003 46.525002 82.195 C 46.691002 82.114998 46.854 82.032997 47.016998 81.950996 C 47.098999 81.910004 47.179001 81.866997 47.258999 81.825996 C 47.419998 81.741997 47.578999 81.657997 47.738998 81.57 C 47.812 81.530998 47.888 81.489998 47.962002 81.448997 C 48.151001 81.344002 48.341 81.236 48.528 81.123001 C 48.568001 81.101997 48.608002 81.080002 48.646 81.058998 C 48.874001 80.921997 49.098 80.786003 49.321999 80.644997 C 49.377998 80.610001 49.431 80.574997 49.485001 80.540001 C 49.653 80.432999 49.82 80.324997 49.984001 80.216003 C 50.058998 80.165001 50.132999 80.113998 50.208 80.064003 C 50.355 79.963997 50.500999 79.862999 50.645 79.761002 C 50.720001 79.708 50.796001 79.653999 50.873001 79.598999 C 51.021999 79.491997 51.172001 79.379997 51.319 79.268997 C 51.382 79.220001 51.446999 79.175003 51.509998 79.125999 C 51.719002 78.966003 51.926998 78.804001 52.132 78.636002 C 52.138 78.632004 52.144001 78.625999 52.150002 78.620003 C 52.347 78.459999 52.543999 78.297997 52.737 78.132004 C 52.801998 78.074997 52.866001 78.021004 52.93 77.963997 C 53.066002 77.847 53.201 77.727997 53.334 77.605003 C 53.405998 77.542 53.478001 77.475998 53.549999 77.407997 C 53.674999 77.292999 53.803001 77.174004 53.926998 77.054001 C 53.995998 76.987999 54.067001 76.920998 54.133999 76.857002 C 54.166 76.823997 54.196999 76.793999 54.23 76.763 L 54.23 87.931 C 54.23 87.994003 54.222 88.052002 54.212002 88.112999 C 54.209999 88.121002 54.208 88.130997 54.206001 88.139999 C 54.193001 88.195 54.178001 88.245003 54.158001 88.297997 C 54.151001 88.309998 54.145 88.320999 54.140999 88.334999 C 54.119999 88.382004 54.095001 88.427002 54.068001 88.470001 C 54.056999 88.486 54.046001 88.499001 54.034 88.513 C 54.014 88.540001 53.993999 88.566002 53.972 88.591003 C 53.952999 88.609001 53.936001 88.627998 53.917999 88.648003 C 53.886002 88.675003 53.855 88.700996 53.821999 88.723999 C 53.799999 88.739998 53.771 88.759003 53.743999 88.775002 C 53.726002 88.787003 53.706001 88.795998 53.686001 88.806 C 53.658001 88.821999 53.630001 88.833 53.598 88.848999 C 53.57 88.861 53.537998 88.869003 53.506001 88.875999 C 53.481998 88.884003 53.458 88.891998 53.431999 88.897003 C 53.369999 88.908997 53.306999 88.917 53.243 88.917 L 31.759001 88.917 L 14.578 88.917 C 14.035 88.917999 13.593 88.476997 13.593 87.931999 Z M 62.694 100.575996 C 62.574001 100.575996 62.457001 100.555 62.341 100.510002 L 41.358002 92.471001 L 53.243999 92.471001 C 53.330002 92.471001 53.416 92.467003 53.501999 92.462997 C 53.528999 92.460999 53.557999 92.459 53.584999 92.457001 C 53.644001 92.450996 53.699001 92.445 53.757 92.439003 C 53.789001 92.434998 53.823002 92.431 53.855 92.427002 C 53.907001 92.418999 53.959999 92.411003 54.013 92.402 C 54.043999 92.398003 54.077999 92.391998 54.111 92.386002 C 54.167 92.374001 54.222 92.362999 54.276001 92.348999 C 54.301998 92.343002 54.330002 92.336998 54.355999 92.329002 C 54.437 92.308998 54.519001 92.288002 54.598999 92.263 C 54.605 92.259003 54.612999 92.257004 54.618999 92.254997 C 54.695 92.232002 54.768002 92.206001 54.842999 92.179001 C 54.861 92.170998 54.879002 92.163002 54.896999 92.155998 C 54.959999 92.130997 55.027 92.105003 55.09 92.075996 C 55.104 92.068001 55.119999 92.061996 55.133999 92.055 C 55.209999 92.022003 55.285 91.985001 55.362 91.944 C 55.368 91.944 55.375999 91.944 55.382 91.944 C 55.59 91.949997 55.797001 91.952003 56.001999 91.952003 C 60.023998 91.952003 63.965 91.120003 67.609001 89.522003 L 63.617001 99.942001 C 63.470001 100.32 63.098999 100.575996 62.694 100.575996 Z M 85.775002 39.349998 C 86.019997 39.445999 86.212997 39.628998 86.321999 39.871002 C 86.429001 40.111 86.436996 40.378998 86.342003 40.625 L 82.348 51.053001 C 82.330002 51.014 82.309998 50.974998 82.292 50.933998 C 82.25 50.846001 82.208 50.757996 82.166 50.667999 C 82.095001 50.515999 82.019997 50.361 81.945 50.210999 C 81.899002 50.121002 81.855003 50.030998 81.810997 49.943001 C 81.731003 49.785004 81.647003 49.626999 81.566002 49.472 C 81.524002 49.393997 81.484001 49.316002 81.440002 49.236 C 81.324997 49.020996 81.205002 48.806 81.081001 48.595001 C 81.072998 48.576996 81.065002 48.563995 81.057999 48.550003 C 80.926003 48.322998 80.790001 48.098999 80.654999 47.875999 C 80.609001 47.804001 80.564003 47.733002 80.519997 47.660995 C 80.424004 47.507004 80.327003 47.358002 80.227997 47.206001 C 80.176003 47.125999 80.123001 47.043999 80.069 46.964005 C 79.973 46.820999 79.875999 46.681 79.778 46.537994 C 79.723999 46.459999 79.670998 46.382004 79.616997 46.306 C 79.504997 46.150002 79.392998 45.994995 79.279999 45.843002 C 79.237999 45.783997 79.195999 45.723999 79.152 45.667 C 78.995003 45.459999 78.836998 45.250999 78.672997 45.046005 C 78.639 45.005005 78.602997 44.959999 78.569 44.918999 C 78.439003 44.757004 78.306999 44.597 78.172997 44.436996 C 78.114998 44.369003 78.057999 44.298004 77.998001 44.231995 C 77.884003 44.097 77.769997 43.966003 77.653999 43.836998 C 77.591003 43.764999 77.527 43.692001 77.462997 43.620003 C 77.344002 43.488998 77.223999 43.360001 77.105003 43.231003 C 77.042999 43.167 76.985001 43.101997 76.922997 43.038002 C 76.769997 42.879997 76.615997 42.720001 76.458 42.563004 C 76.431 42.533997 76.402 42.503998 76.373001 42.474998 C 76.186996 42.291 76 42.110001 75.808998 41.931999 C 75.751999 41.878998 75.696999 41.828003 75.640999 41.776001 C 75.502998 41.649002 75.365997 41.522003 75.225998 41.399002 C 75.154999 41.334999 75.084 41.274002 75.013 41.210999 C 74.883003 41.098 74.750999 40.984001 74.617996 40.871002 C 74.545998 40.811996 74.473999 40.75 74.400002 40.691002 C 74.255997 40.571999 74.112999 40.455002 73.967003 40.341003 C 73.904999 40.290001 73.845001 40.240997 73.782997 40.193001 C 73.575996 40.033005 73.365997 39.873001 73.156998 39.716003 C 73.126999 39.695999 73.098999 39.675003 73.069 39.654999 C 72.885002 39.517998 72.699997 39.387001 72.514 39.259003 C 72.441002 39.208 72.367996 39.156998 72.294998 39.109001 C 72.149002 39.009003 72.001999 38.910004 71.851997 38.811996 C 71.773003 38.757004 71.691002 38.707001 71.609001 38.653999 C 71.461998 38.557999 71.314003 38.466003 71.165001 38.375 C 71.086998 38.326004 71.010002 38.277 70.93 38.229996 C 70.753998 38.125 70.575996 38.020996 70.398003 37.916 C 70.346001 37.887001 70.295998 37.857002 70.245003 37.830002 C 70.015999 37.696999 69.783997 37.571999 69.551003 37.445 C 69.488998 37.414001 69.428001 37.382004 69.362999 37.348999 C 69.189003 37.261002 69.015999 37.170998 68.838997 37.083 C 68.754997 37.040001 68.669998 36.999001 68.584 36.958 C 68.426003 36.882004 68.266998 36.807999 68.107002 36.733002 C 68.018997 36.692001 67.931 36.651001 67.841003 36.612 C 67.674004 36.535995 67.505997 36.464005 67.336998 36.390999 C 67.259003 36.358002 67.181 36.324997 67.101997 36.289001 C 66.853996 36.186996 66.607002 36.087997 66.356003 35.992004 C 66.043999 35.873001 65.730003 35.760002 65.417 35.652 C 65.359001 35.630997 65.302002 35.611 65.244003 35.591003 C 64.938004 35.487 64.634003 35.389999 64.328003 35.298004 C 64.269997 35.281998 64.212997 35.264999 64.154999 35.247002 C 63.838001 35.153 63.518002 35.063004 63.200001 34.981003 L 63.198002 34.981003 C 62.876999 34.899002 62.555 34.822998 62.231998 34.750999 C 62.174 34.737 62.115002 34.725998 62.056999 34.711998 C 61.744999 34.645996 61.432999 34.583 61.118999 34.526001 C 61.061001 34.515999 61.002998 34.505997 60.943001 34.497002 C 60.619999 34.440002 60.296001 34.388 59.970001 34.343002 C 59.967999 34.343002 59.966 34.341003 59.964001 34.341003 C 59.637001 34.295998 59.307999 34.259003 58.979 34.223999 C 58.921001 34.218002 58.861 34.211998 58.800999 34.204002 C 58.485001 34.175003 58.165001 34.149002 57.844002 34.129997 C 57.823002 34.127998 57.799999 34.125999 57.778999 34.124001 L 57.778999 28.622002 L 85.775002 39.349998 Z"/>
        <path id="path1" fill="#000000" stroke="none" d="M 33.91 48.412003 C 29.632999 48.412003 26.150999 51.891998 26.150999 56.169998 C 26.150999 60.449005 29.632 63.931999 33.91 63.931999 C 38.188999 63.931999 41.671001 60.449997 41.671001 56.169998 C 41.671001 51.893005 38.188999 48.412003 33.91 48.412003 Z M 33.91 60.378998 C 31.591 60.378998 29.702999 58.492004 29.702999 56.169998 C 29.702999 53.852005 31.591 51.962997 33.91 51.962997 C 36.230999 51.962997 38.119999 53.852005 38.119999 56.169998 C 38.119999 58.492004 36.230999 60.378998 33.91 60.378998 Z"/>
    </g>
</svg>
